<svg width="657.9px" height="122px" xmlns="http://www.w3.org/2000/svg" viewBox="-78.94687499999998 14 657.89375 122" style="background: rgba(0, 0, 0, 0)" preserveAspectRatio="xMidYMid"><defs><linearGradient id="editing-gradient-gradient" x1="0" x2="1" y1="0.5" y2="0.5" gradientUnits="objectBoundingBox"><stop offset="0" stop-color="#0050ff"></stop><stop offset="1" stop-color="#ff00ff"></stop></linearGradient></defs><g><g transform="matrix(1,0,0,1.3,14.7,135.8)"><path d="M -43.1 -24.8 L -57 -24.8 L -48.9 -67 L -34.8 -67 L -43.1 -24.8 Z M 12.7 -23.5 L 12.7 -23.5 L 12.7 -23.5 Q 4.9 -23.5 4.9 -29.5 L 4.9 -29.5 L 4.9 -29.5 Q 4.9 -32.1 6.1 -37.2 L 6.1 -37.2 L 6.1 -37.2 Q 7.2 -42.3 7.6 -44.4 L 7.6 -44.4 L 7.6 -44.4 Q 8.5 -49 8.5 -50.5 L 8.5 -50.5 L 8.5 -50.5 Q 8.5 -53.8 6 -53.8 L 6 -53.8 L 6 -53.8 Q 4.4 -53.8 2.9 -51.6 L 2.9 -51.6 L 2.9 -51.6 Q 1.4 -49.4 0.7 -44.9 L 0.7 -44.9 L -3.3 -24.8 L -15.8 -23.5 L -12.3 -40.9 L -12.3 -40.9 Q -11.8 -43.8 -11.3 -47.1 L -11.3 -47.1 L -11.3 -47.1 Q -10.7 -50.3 -10.7 -50.8 L -10.7 -50.8 L -10.7 -50.8 Q -10.7 -53.8 -12.9 -53.8 L -12.9 -53.8 L -12.9 -53.8 Q -14.4 -53.8 -16 -51.6 L -16 -51.6 L -16 -51.6 Q -17.6 -49.4 -18.5 -44.9 L -18.5 -44.9 L -22.4 -24.8 L -35 -23.5 L -28.3 -57.4 L -17.8 -58.7 L -18.9 -52.2 L -18.9 -52.2 Q -17.3 -55.7 -14.2 -57.2 L -14.2 -57.2 L -14.2 -57.2 Q -11.1 -58.7 -6.3 -58.7 L -6.3 -58.7 L -6.3 -58.7 Q -3.6 -58.7 -1.8 -57.4 L -1.8 -57.4 L -1.8 -57.4 Q 0 -56 0.6 -53.8 L 0.6 -53.8 L 0.6 -53.8 Q 1.7 -56.1 4.5 -57.4 L 4.5 -57.4 L 4.5 -57.4 Q 7.2 -58.7 10.7 -58.7 L 10.7 -58.7 L 10.7 -58.7 Q 14.1 -58.7 15.8 -58 L 15.8 -58 L 15.8 -58 Q 17.5 -57.2 18.5 -56 L 18.5 -56 L 18.5 -56 Q 20.2 -53.8 20.2 -49.7 L 20.2 -49.7 L 20.2 -49.7 Q 20.2 -45.6 18.5 -37.3 L 18.5 -37.3 L 18.5 -37.3 Q 17.6 -33.2 17.6 -31.7 L 17.6 -31.7 L 17.6 -31.7 Q 17.6 -30.2 18.5 -29.3 L 18.5 -29.3 L 18.5 -29.3 Q 19.3 -28.4 20.6 -28.2 L 20.6 -28.2 L 20.6 -28.2 Q 20 -26.1 17.8 -24.8 L 17.8 -24.8 L 17.8 -24.8 Q 15.6 -23.5 12.7 -23.5 Z M 28.3 -26.7 L 28.3 -26.7 L 28.3 -26.7 Q 26.8 -28.4 26.2 -31 L 26.2 -31 L 26.2 -31 Q 25.5 -33.6 25.5 -37.9 L 25.5 -37.9 L 25.5 -37.9 Q 25.5 -42.2 27 -46.1 L 27 -46.1 L 27 -46.1 Q 28.4 -50 31.1 -52.8 L 31.1 -52.8 L 31.1 -52.8 Q 36.6 -58.7 45.7 -58.7 L 45.7 -58.7 L 45.7 -58.7 Q 49 -58.7 51.3 -57.6 L 51.3 -57.6 L 62.3 -58.7 L 57.5 -33.7 L 57.5 -33.7 Q 57.4 -33 57.4 -31.6 L 57.4 -31.6 L 57.4 -31.6 Q 57.4 -30.2 58.2 -29.3 L 58.2 -29.3 L 58.2 -29.3 Q 59.1 -28.4 60.4 -28.2 L 60.4 -28.2 L 60.4 -28.2 Q 59.7 -26.1 57.4 -24.8 L 57.4 -24.8 L 57.4 -24.8 Q 55.1 -23.5 52.4 -23.5 L 52.4 -23.5 L 52.4 -23.5 Q 49.8 -23.5 48 -24.5 L 48 -24.5 L 48 -24.5 Q 46.3 -25.5 45.8 -27.2 L 45.8 -27.2 L 45.8 -27.2 Q 44.7 -25.6 42.6 -24.5 L 42.6 -24.5 L 42.6 -24.5 Q 40.4 -23.5 37.5 -23.5 L 37.5 -23.5 L 37.5 -23.5 Q 34.6 -23.5 32.2 -24.3 L 32.2 -24.3 L 32.2 -24.3 Q 29.8 -25 28.3 -26.7 Z M 41.8 -52.7 L 41.8 -52.7 L 41.8 -52.7 Q 41.1 -51.5 40.5 -49.6 L 40.5 -49.6 L 40.5 -49.6 Q 39.8 -47.6 38.8 -42.4 L 38.8 -42.4 L 38.8 -42.4 Q 37.7 -37.2 37.7 -33.5 L 37.7 -33.5 L 37.7 -33.5 Q 37.7 -29.8 38.3 -28.7 L 38.3 -28.7 L 38.3 -28.7 Q 38.9 -27.6 39.9 -27.6 L 39.9 -27.6 L 39.9 -27.6 Q 41.9 -27.6 43.4 -29.6 L 43.4 -29.6 L 43.4 -29.6 Q 44.9 -31.5 45.5 -35 L 45.5 -35 L 48.9 -53.7 L 48.9 -53.7 Q 47.6 -54.9 46 -54.9 L 46 -54.9 L 46 -54.9 Q 44.4 -54.9 43.5 -54.4 L 43.5 -54.4 L 43.5 -54.4 Q 42.6 -53.8 41.8 -52.7 Z M 70 -51.5 L 70 -51.5 L 70 -51.5 Q 72.2 -54.6 75.5 -56.7 L 75.5 -56.7 L 75.5 -56.7 Q 78.8 -58.7 82.8 -58.7 L 82.8 -58.7 L 82.8 -58.7 Q 86.9 -58.7 88.8 -57.4 L 88.8 -57.4 L 101.3 -58.7 L 97 -34.1 L 97 -34.1 Q 94.7 -21.6 90 -16.7 L 90 -16.7 L 90 -16.7 Q 85.5 -12 76.6 -12 L 76.6 -12 L 76.6 -12 Q 69.9 -12 66.1 -14.1 L 66.1 -14.1 L 66.1 -14.1 Q 62.2 -16.2 62.2 -19.7 L 62.2 -19.7 L 62.2 -19.7 Q 62.2 -22.4 64.2 -23.9 L 64.2 -23.9 L 64.2 -23.9 Q 66.2 -25.4 69.3 -25.4 L 69.3 -25.4 L 69.3 -25.4 Q 71.9 -25.4 74 -24.1 L 74 -24.1 L 74 -24.1 Q 75.2 -23.5 75.8 -22.6 L 75.8 -22.6 L 75.8 -22.6 Q 74.3 -21.3 74.3 -19.2 L 74.3 -19.2 L 74.3 -19.2 Q 74.3 -16.5 76.9 -16.5 L 76.9 -16.5 L 76.9 -16.5 Q 81.2 -16.5 83.6 -26.6 L 83.6 -26.6 L 83.6 -26.6 Q 84.3 -29.3 84.9 -32.1 L 84.9 -32.1 L 84.9 -32.1 Q 82 -28.6 75.5 -28.6 L 75.5 -28.6 L 75.5 -28.6 Q 70.9 -28.6 68.3 -30.7 L 68.3 -30.7 L 68.3 -30.7 Q 65.7 -32.9 65.7 -38 L 65.7 -38 L 65.7 -38 Q 65.7 -41.2 66.8 -44.8 L 66.8 -44.8 L 66.8 -44.8 Q 67.9 -48.5 70 -51.5 Z M 78.3 -37.8 L 78.3 -37.8 L 78.3 -37.8 Q 78.3 -33.5 80.6 -33.5 L 80.6 -33.5 L 80.6 -33.5 Q 82.1 -33.5 83.6 -35.2 L 83.6 -35.2 L 83.6 -35.2 Q 84.7 -36.5 85.2 -38.5 L 85.2 -38.5 L 88.5 -54.9 L 88.5 -54.9 Q 88.1 -55 87.8 -55.1 L 87.8 -55.1 L 87.8 -55.1 Q 87.2 -55.4 86.3 -55.4 L 86.3 -55.4 L 86.3 -55.4 Q 82.4 -55.4 80.1 -49 L 80.1 -49 L 80.1 -49 Q 78.3 -44 78.3 -37.8 Z M 129.7 -35.6 L 129.7 -35.6 L 129.7 -35.6 Q 131.3 -34.5 131.3 -32.1 L 131.3 -32.1 L 131.3 -32.1 Q 131.3 -29.7 130.1 -28.2 L 130.1 -28.2 L 130.1 -28.2 Q 128.9 -26.6 126.9 -25.6 L 126.9 -25.6 L 126.9 -25.6 Q 122.8 -23.5 118.4 -23.5 L 118.4 -23.5 L 118.4 -23.5 Q 114 -23.5 111.4 -24.5 L 111.4 -24.5 L 111.4 -24.5 Q 108.8 -25.4 107.1 -27.2 L 107.1 -27.2 L 107.1 -27.2 Q 103.7 -30.6 103.7 -36.8 L 103.7 -36.8 L 103.7 -36.8 Q 103.7 -46.5 108.9 -52.4 L 108.9 -52.4 L 108.9 -52.4 Q 114.6 -58.7 124.4 -58.7 L 124.4 -58.7 L 124.4 -58.7 Q 130.4 -58.7 133.5 -56.1 L 133.5 -56.1 L 133.5 -56.1 Q 135.7 -54.2 135.7 -51.1 L 135.7 -51.1 L 135.7 -51.1 Q 135.7 -39.8 116.2 -39.8 L 116.2 -39.8 L 116.2 -39.8 Q 116 -38.2 116 -36.8 L 116 -36.8 L 116 -36.8 Q 116 -33.8 117.3 -32.7 L 117.3 -32.7 L 117.3 -32.7 Q 118.6 -31.6 121 -31.6 L 121 -31.6 L 121 -31.6 Q 123.5 -31.6 126.1 -32.7 L 126.1 -32.7 L 126.1 -32.7 Q 128.7 -33.8 129.7 -35.6 Z M 116.7 -42.6 L 116.7 -42.6 L 116.7 -42.6 Q 121.2 -42.6 123.9 -45.4 L 123.9 -45.4 L 123.9 -45.4 Q 126.5 -48.1 126.5 -52.4 L 126.5 -52.4 L 126.5 -52.4 Q 126.5 -53.8 125.9 -54.6 L 125.9 -54.6 L 125.9 -54.6 Q 125.4 -55.4 124.3 -55.4 L 124.3 -55.4 L 124.3 -55.4 Q 123.2 -55.4 122.3 -55 L 122.3 -55 L 122.3 -55 Q 121.4 -54.6 120.4 -53.2 L 120.4 -53.2 L 120.4 -53.2 Q 118 -50 116.7 -42.6 Z M 157 -47.2 L 157 -47.2 L 157 -47.2 Q 157.9 -49.6 157.9 -51.7 L 157.9 -51.7 L 157.9 -51.7 Q 157.9 -55.4 154.8 -55.4 L 154.8 -55.4 L 154.8 -55.4 Q 153.2 -55.4 151.9 -54 L 151.9 -54 L 151.9 -54 Q 150.6 -52.6 150.6 -50.8 L 150.6 -50.8 L 150.6 -50.8 Q 150.6 -49.5 151.6 -48.5 L 151.6 -48.5 L 151.6 -48.5 Q 153.1 -47.1 156.9 -44.8 L 156.9 -44.8 L 156.9 -44.8 Q 160.7 -42.4 162.1 -40.6 L 162.1 -40.6 L 162.1 -40.6 Q 163.5 -38.7 163.5 -36.1 L 163.5 -36.1 L 163.5 -36.1 Q 163.5 -33.5 162.3 -31.1 L 162.3 -31.1 L 162.3 -31.1 Q 161 -28.8 158.8 -27.1 L 158.8 -27.1 L 158.8 -27.1 Q 154 -23.5 146.3 -23.5 L 146.3 -23.5 L 146.3 -23.5 Q 142.2 -23.5 139 -25.7 L 139 -25.7 L 139 -25.7 Q 135.8 -27.8 135.8 -30.3 L 135.8 -30.3 L 135.8 -30.3 Q 135.8 -32.8 137.6 -34.3 L 137.6 -34.3 L 137.6 -34.3 Q 139.4 -35.7 142.1 -35.7 L 142.1 -35.7 L 142.1 -35.7 Q 144.8 -35.7 146.4 -34.7 L 146.4 -34.7 L 146.4 -34.7 Q 145.6 -32.6 145.6 -31.2 L 145.6 -31.2 L 145.6 -31.2 Q 145.6 -27 149.2 -27 L 149.2 -27 L 149.2 -27 Q 150.7 -27 151.8 -27.9 L 151.8 -27.9 L 151.8 -27.9 Q 152.8 -28.9 152.8 -30.5 L 152.8 -30.5 L 152.8 -30.5 Q 152.8 -33.8 147.3 -37.3 L 147.3 -37.3 L 147.3 -37.3 Q 142.8 -40.2 141.8 -41.4 L 141.8 -41.4 L 141.8 -41.4 Q 140 -43.4 140 -46 L 140 -46 L 140 -46 Q 140 -48.5 141.3 -51 L 141.3 -51 L 141.3 -51 Q 142.5 -53.4 144.7 -55.1 L 144.7 -55.1 L 144.7 -55.1 Q 149.4 -58.7 157.5 -58.7 L 157.5 -58.7 L 157.5 -58.7 Q 161.7 -58.7 164.1 -57 L 164.1 -57 L 164.1 -57 Q 166.6 -55.4 166.6 -52.6 L 166.6 -52.6 L 166.6 -52.6 Q 166.6 -49.7 164.9 -48.1 L 164.9 -48.1 L 164.9 -48.1 Q 163.2 -46.5 160.1 -46.5 L 160.1 -46.5 L 160.1 -46.5 Q 158 -46.5 157 -47.2 Z M 208.1 -45.4 L 221 -46.5 L 221 -46.5 Q 216.4 -36.4 216.4 -24.7 L 216.4 -24.7 L 216.4 -24.7 Q 214.7 -23.5 212.1 -23.5 L 212.1 -23.5 L 212.1 -23.5 Q 209.6 -23.5 208 -24.7 L 208 -24.7 L 208 -24.7 Q 206.4 -25.9 206.1 -27.1 L 206.1 -27.1 L 206.1 -27.1 Q 204.5 -25.4 201.9 -24.5 L 201.9 -24.5 L 201.9 -24.5 Q 199.3 -23.5 196.6 -23.5 L 196.6 -23.5 L 196.6 -23.5 Q 193.8 -23.5 191.4 -24.4 L 191.4 -24.4 L 191.4 -24.4 Q 189 -25.3 187.1 -27.3 L 187.1 -27.3 L 187.1 -27.3 Q 183.1 -31.6 183.1 -39.9 L 183.1 -39.9 L 183.1 -39.9 Q 183.1 -52.7 189.9 -60.4 L 189.9 -60.4 L 189.9 -60.4 Q 196.9 -68.3 209.4 -68.3 L 209.4 -68.3 L 209.4 -68.3 Q 218.1 -68.3 221.1 -63.8 L 221.1 -63.8 L 221.1 -63.8 Q 222.1 -62.4 222.1 -60.7 L 222.1 -60.7 L 222.1 -60.7 Q 222.1 -59 221.4 -57.6 L 221.4 -57.6 L 221.4 -57.6 Q 220.6 -56.1 219.5 -55 L 219.5 -55 L 219.5 -55 Q 216.7 -52.4 213.3 -52.4 L 213.3 -52.4 L 213.3 -52.4 Q 212 -52.4 210.7 -52.9 L 210.7 -52.9 L 210.7 -52.9 Q 211 -54.8 211 -57 L 211 -57 L 211 -57 Q 211 -59.3 210.8 -60.3 L 210.8 -60.3 L 210.8 -60.3 Q 210.6 -61.3 210.3 -62.2 L 210.3 -62.2 L 210.3 -62.2 Q 209.4 -63.9 207.6 -63.9 L 207.6 -63.9 L 207.6 -63.9 Q 205.8 -63.9 203.8 -61.9 L 203.8 -61.9 L 203.8 -61.9 Q 201.7 -60 200.1 -56.8 L 200.1 -56.8 L 200.1 -56.8 Q 196.6 -49.6 196.6 -41 L 196.6 -41 L 196.6 -41 Q 196.6 -37 198.2 -34.2 L 198.2 -34.2 L 198.2 -34.2 Q 199.8 -31.1 202.8 -31.1 L 202.8 -31.1 L 202.8 -31.1 Q 203.8 -31.1 204.7 -31.6 L 204.7 -31.6 L 204.7 -31.6 Q 205.6 -32.1 206 -32.5 L 206 -32.5 L 208.1 -45.4 Z M 226.9 -26.7 L 226.9 -26.7 L 226.9 -26.7 Q 225.4 -28.4 224.7 -31 L 224.7 -31 L 224.7 -31 Q 224.1 -33.6 224.1 -37.9 L 224.1 -37.9 L 224.1 -37.9 Q 224.1 -42.2 225.5 -46.1 L 225.5 -46.1 L 225.5 -46.1 Q 227 -50 229.7 -52.8 L 229.7 -52.8 L 229.7 -52.8 Q 235.2 -58.7 244.3 -58.7 L 244.3 -58.7 L 244.3 -58.7 Q 247.6 -58.7 249.9 -57.6 L 249.9 -57.6 L 260.9 -58.7 L 256.1 -33.7 L 256.1 -33.7 Q 255.9 -33 255.9 -31.6 L 255.9 -31.6 L 255.9 -31.6 Q 255.9 -30.2 256.8 -29.3 L 256.8 -29.3 L 256.8 -29.3 Q 257.7 -28.4 259 -28.2 L 259 -28.2 L 259 -28.2 Q 258.3 -26.1 256 -24.8 L 256 -24.8 L 256 -24.8 Q 253.6 -23.5 251 -23.5 L 251 -23.5 L 251 -23.5 Q 248.4 -23.5 246.6 -24.5 L 246.6 -24.5 L 246.6 -24.5 Q 244.9 -25.5 244.4 -27.2 L 244.4 -27.2 L 244.4 -27.2 Q 243.3 -25.6 241.2 -24.5 L 241.2 -24.5 L 241.2 -24.5 Q 239 -23.5 236.1 -23.5 L 236.1 -23.5 L 236.1 -23.5 Q 233.2 -23.5 230.8 -24.3 L 230.8 -24.3 L 230.8 -24.3 Q 228.4 -25 226.9 -26.7 Z M 240.4 -52.7 L 240.4 -52.7 L 240.4 -52.7 Q 239.7 -51.5 239.1 -49.6 L 239.1 -49.6 L 239.1 -49.6 Q 238.4 -47.6 237.4 -42.4 L 237.4 -42.4 L 237.4 -42.4 Q 236.3 -37.2 236.3 -33.5 L 236.3 -33.5 L 236.3 -33.5 Q 236.3 -29.8 236.9 -28.7 L 236.9 -28.7 L 236.9 -28.7 Q 237.5 -27.6 238.5 -27.6 L 238.5 -27.6 L 238.5 -27.6 Q 240.5 -27.6 242 -29.6 L 242 -29.6 L 242 -29.6 Q 243.5 -31.5 244.1 -35 L 244.1 -35 L 247.5 -53.7 L 247.5 -53.7 Q 246.2 -54.9 244.6 -54.9 L 244.6 -54.9 L 244.6 -54.9 Q 243 -54.9 242.1 -54.4 L 242.1 -54.4 L 242.1 -54.4 Q 241.2 -53.8 240.4 -52.7 Z M 279.6 -28.3 L 279.6 -28.3 L 279.6 -28.3 Q 277.6 -23.5 271.3 -23.5 L 271.3 -23.5 L 271.3 -23.5 Q 268.1 -23.5 266.1 -25.7 L 266.1 -25.7 L 266.1 -25.7 Q 264.4 -27.6 264.4 -29.7 L 264.4 -29.7 L 264.4 -29.7 Q 264.4 -34.5 266.6 -45 L 266.6 -45 L 271.3 -69.6 L 284.3 -70.9 L 278.1 -38.5 L 278.1 -38.5 Q 277 -33.7 277 -32.1 L 277 -32.1 L 277 -32.1 Q 277 -28.4 279.6 -28.3 Z M 300.4 -28.3 L 300.4 -28.3 L 300.4 -28.3 Q 298.4 -23.5 292 -23.5 L 292 -23.5 L 292 -23.5 Q 288.8 -23.5 286.8 -25.7 L 286.8 -25.7 L 286.8 -25.7 Q 285.1 -27.6 285.1 -29.7 L 285.1 -29.7 L 285.1 -29.7 Q 285.1 -34.5 287.4 -45 L 287.4 -45 L 292 -69.6 L 305 -70.9 L 298.8 -38.5 L 298.8 -38.5 Q 297.7 -33.7 297.7 -32.1 L 297.7 -32.1 L 297.7 -32.1 Q 297.7 -28.4 300.4 -28.3 Z M 331.7 -35.6 L 331.7 -35.6 L 331.7 -35.6 Q 333.3 -34.5 333.3 -32.1 L 333.3 -32.1 L 333.3 -32.1 Q 333.3 -29.7 332.1 -28.2 L 332.1 -28.2 L 332.1 -28.2 Q 330.9 -26.6 328.9 -25.6 L 328.9 -25.6 L 328.9 -25.6 Q 324.8 -23.5 320.4 -23.5 L 320.4 -23.5 L 320.4 -23.5 Q 316 -23.5 313.4 -24.5 L 313.4 -24.5 L 313.4 -24.5 Q 310.8 -25.4 309.1 -27.2 L 309.1 -27.2 L 309.1 -27.2 Q 305.7 -30.6 305.7 -36.8 L 305.7 -36.8 L 305.7 -36.8 Q 305.7 -46.5 310.9 -52.4 L 310.9 -52.4 L 310.9 -52.4 Q 316.6 -58.7 326.3 -58.7 L 326.3 -58.7 L 326.3 -58.7 Q 332.4 -58.7 335.4 -56.1 L 335.4 -56.1 L 335.4 -56.1 Q 337.7 -54.2 337.7 -51.1 L 337.7 -51.1 L 337.7 -51.1 Q 337.7 -39.8 318.2 -39.8 L 318.2 -39.8 L 318.2 -39.8 Q 318 -38.2 318 -36.8 L 318 -36.8 L 318 -36.8 Q 318 -33.8 319.3 -32.7 L 319.3 -32.7 L 319.3 -32.7 Q 320.6 -31.6 323 -31.6 L 323 -31.6 L 323 -31.6 Q 325.5 -31.6 328 -32.7 L 328 -32.7 L 328 -32.7 Q 330.6 -33.8 331.7 -35.6 Z M 318.7 -42.6 L 318.7 -42.6 L 318.7 -42.6 Q 323.2 -42.6 325.8 -45.4 L 325.8 -45.4 L 325.8 -45.4 Q 328.5 -48.1 328.5 -52.4 L 328.5 -52.4 L 328.5 -52.4 Q 328.5 -53.8 327.9 -54.6 L 327.9 -54.6 L 327.9 -54.6 Q 327.4 -55.4 326.3 -55.4 L 326.3 -55.4 L 326.3 -55.4 Q 325.2 -55.4 324.3 -55 L 324.3 -55 L 324.3 -55 Q 323.3 -54.6 322.4 -53.2 L 322.4 -53.2 L 322.4 -53.2 Q 320 -50 318.7 -42.6 Z M 359.9 -42.8 L 359.9 -42.8 L 359.9 -42.8 Q 362.2 -46.9 362.2 -51 L 362.2 -51 L 362.2 -51 Q 362.2 -53.8 360.2 -53.8 L 360.2 -53.8 L 360.2 -53.8 Q 358.7 -53.8 357.1 -51.2 L 357.1 -51.2 L 357.1 -51.2 Q 355.4 -48.5 354.9 -45.1 L 354.9 -45.1 L 351.6 -24.8 L 338.3 -23.5 L 344.8 -57.4 L 355.4 -58.7 L 354.3 -52.2 L 354.3 -52.2 Q 357.4 -58.7 364.4 -58.7 L 364.4 -58.7 L 364.4 -58.7 Q 368.1 -58.7 370.2 -56.8 L 370.2 -56.8 L 370.2 -56.8 Q 372.2 -54.9 372.2 -50.9 L 372.2 -50.9 L 372.2 -50.9 Q 372.2 -47 369.6 -44.5 L 369.6 -44.5 L 369.6 -44.5 Q 367 -42 362.6 -42 L 362.6 -42 L 362.6 -42 Q 360.7 -42 359.9 -42.8 Z M 393.5 -32 L 393.5 -32 L 393.5 -32 Q 390.2 -28.6 384.1 -28.6 L 384.1 -28.6 L 384.1 -28.6 Q 376.5 -28.6 374.9 -34.1 L 374.9 -34.1 L 374.9 -34.1 Q 374.4 -35.8 374.4 -37.6 L 374.4 -37.6 L 374.4 -37.6 Q 374.4 -39.5 374.8 -41.4 L 374.8 -41.4 L 377.8 -57.4 L 390.8 -58.7 L 387.3 -40.1 L 387.3 -40.1 Q 387.1 -39.2 387 -38.4 L 387 -38.4 L 387 -38.4 Q 386.8 -37.5 386.8 -36.5 L 386.8 -36.5 L 386.8 -36.5 Q 386.8 -35.6 387.1 -35 L 387.1 -35 L 387.1 -35 Q 387.4 -34.4 387.9 -34 L 387.9 -34 L 387.9 -34 Q 388.6 -33.5 390 -33.5 L 390 -33.5 L 390 -33.5 Q 391.4 -33.5 392.6 -35.2 L 392.6 -35.2 L 392.6 -35.2 Q 393.7 -36.8 394.3 -39.7 L 394.3 -39.7 L 397.8 -57.4 L 410.4 -58.7 L 405.6 -33.6 L 405.6 -33.6 Q 403.3 -21.3 398.4 -16.4 L 398.4 -16.4 L 398.4 -16.4 Q 395.9 -13.9 392.7 -12.9 L 392.7 -12.9 L 392.7 -12.9 Q 389.5 -11.9 385.3 -11.9 L 385.3 -11.9 L 385.3 -11.9 Q 378.6 -11.9 374.7 -14 L 374.7 -14 L 374.7 -14 Q 370.9 -16.1 370.9 -19.7 L 370.9 -19.7 L 370.9 -19.7 Q 370.9 -22.3 372.9 -23.8 L 372.9 -23.8 L 372.9 -23.8 Q 374.9 -25.3 377.9 -25.3 L 377.9 -25.3 L 377.9 -25.3 Q 380.6 -25.3 382.7 -24.1 L 382.7 -24.1 L 382.7 -24.1 Q 383.9 -23.4 384.5 -22.5 L 384.5 -22.5 L 384.5 -22.5 Q 383 -21.3 383 -19.2 L 383 -19.2 L 383 -19.2 Q 383 -16.3 385.5 -16.3 L 385.5 -16.3 L 385.5 -16.3 Q 389.8 -16.3 392.2 -26.1 L 392.2 -26.1 L 392.2 -26.1 Q 392.9 -28.9 393.5 -32 Z" fill="url(#editing-gradient-gradient)"></path></g></g><style>text {
  font-size: 64px;
  font-family: Arial Black;
  dominant-baseline: central;
  text-anchor: middle;
}</style></svg>